<mxfile host="Electron" modified="2023-10-02T13:35:46.119Z" agent="Mozilla/5.0 (Windows NT 10.0; Win64; x64) AppleWebKit/537.36 (KHTML, like Gecko) draw.io/22.0.0 Chrome/114.0.5735.289 Electron/25.8.3 Safari/537.36" etag="UjkM2yjp35ac4z6W_vIZ" version="22.0.0" type="device">
  <diagram name="Page-1" id="vIfLpk-wMGPHIjnths0T">
    <mxGraphModel dx="1098" dy="820" grid="1" gridSize="10" guides="1" tooltips="1" connect="1" arrows="1" fold="1" page="1" pageScale="1" pageWidth="850" pageHeight="1100" math="0" shadow="0">
      <root>
        <mxCell id="0" />
        <mxCell id="1" parent="0" />
        <mxCell id="XC3dax90-63tfWxkoVBf-4" value="" style="rounded=0;whiteSpace=wrap;html=1;" vertex="1" parent="1">
          <mxGeometry x="200" y="280" width="520" height="360" as="geometry" />
        </mxCell>
        <mxCell id="XC3dax90-63tfWxkoVBf-6" style="edgeStyle=orthogonalEdgeStyle;rounded=0;orthogonalLoop=1;jettySize=auto;html=1;exitX=1;exitY=0.5;exitDx=0;exitDy=0;entryX=0;entryY=0.5;entryDx=0;entryDy=0;" edge="1" parent="1" source="XC3dax90-63tfWxkoVBf-1" target="XC3dax90-63tfWxkoVBf-2">
          <mxGeometry relative="1" as="geometry" />
        </mxCell>
        <mxCell id="XC3dax90-63tfWxkoVBf-16" style="edgeStyle=orthogonalEdgeStyle;rounded=0;orthogonalLoop=1;jettySize=auto;html=1;exitX=1;exitY=0.25;exitDx=0;exitDy=0;entryX=0;entryY=0.25;entryDx=0;entryDy=0;" edge="1" parent="1" source="XC3dax90-63tfWxkoVBf-1" target="XC3dax90-63tfWxkoVBf-15">
          <mxGeometry relative="1" as="geometry">
            <Array as="points">
              <mxPoint x="180" y="385" />
              <mxPoint x="180" y="185" />
            </Array>
          </mxGeometry>
        </mxCell>
        <mxCell id="XC3dax90-63tfWxkoVBf-1" value="TeleCore" style="rounded=1;whiteSpace=wrap;html=1;" vertex="1" parent="1">
          <mxGeometry x="40" y="370" width="120" height="60" as="geometry" />
        </mxCell>
        <mxCell id="XC3dax90-63tfWxkoVBf-11" style="edgeStyle=orthogonalEdgeStyle;rounded=0;orthogonalLoop=1;jettySize=auto;html=1;exitX=1;exitY=0.75;exitDx=0;exitDy=0;entryX=0;entryY=0.5;entryDx=0;entryDy=0;" edge="1" parent="1" source="XC3dax90-63tfWxkoVBf-2" target="XC3dax90-63tfWxkoVBf-9">
          <mxGeometry relative="1" as="geometry" />
        </mxCell>
        <mxCell id="XC3dax90-63tfWxkoVBf-14" style="edgeStyle=orthogonalEdgeStyle;rounded=0;orthogonalLoop=1;jettySize=auto;html=1;exitX=1;exitY=0.25;exitDx=0;exitDy=0;entryX=0;entryY=0.5;entryDx=0;entryDy=0;" edge="1" parent="1" source="XC3dax90-63tfWxkoVBf-2" target="XC3dax90-63tfWxkoVBf-7">
          <mxGeometry relative="1" as="geometry" />
        </mxCell>
        <mxCell id="XC3dax90-63tfWxkoVBf-17" style="edgeStyle=orthogonalEdgeStyle;rounded=0;orthogonalLoop=1;jettySize=auto;html=1;exitX=0.75;exitY=0;exitDx=0;exitDy=0;entryX=0;entryY=0.75;entryDx=0;entryDy=0;" edge="1" parent="1" source="XC3dax90-63tfWxkoVBf-2" target="XC3dax90-63tfWxkoVBf-15">
          <mxGeometry relative="1" as="geometry" />
        </mxCell>
        <mxCell id="XC3dax90-63tfWxkoVBf-2" value="True Aerospheres" style="rounded=1;whiteSpace=wrap;html=1;" vertex="1" parent="1">
          <mxGeometry x="240" y="370" width="120" height="60" as="geometry" />
        </mxCell>
        <mxCell id="XC3dax90-63tfWxkoVBf-13" style="edgeStyle=orthogonalEdgeStyle;rounded=0;orthogonalLoop=1;jettySize=auto;html=1;exitX=1;exitY=0.25;exitDx=0;exitDy=0;entryX=0;entryY=0.25;entryDx=0;entryDy=0;" edge="1" parent="1" source="XC3dax90-63tfWxkoVBf-7" target="XC3dax90-63tfWxkoVBf-8">
          <mxGeometry relative="1" as="geometry" />
        </mxCell>
        <mxCell id="XC3dax90-63tfWxkoVBf-7" value="True Aerobiosis" style="rounded=1;whiteSpace=wrap;html=1;" vertex="1" parent="1">
          <mxGeometry x="400" y="370" width="120" height="60" as="geometry" />
        </mxCell>
        <mxCell id="XC3dax90-63tfWxkoVBf-8" value="True Respiration/&lt;br&gt;Breath-Taken" style="rounded=1;whiteSpace=wrap;html=1;" vertex="1" parent="1">
          <mxGeometry x="560" y="370" width="120" height="60" as="geometry" />
        </mxCell>
        <mxCell id="XC3dax90-63tfWxkoVBf-12" style="edgeStyle=orthogonalEdgeStyle;rounded=0;orthogonalLoop=1;jettySize=auto;html=1;exitX=1;exitY=0.5;exitDx=0;exitDy=0;entryX=0;entryY=0.75;entryDx=0;entryDy=0;" edge="1" parent="1" source="XC3dax90-63tfWxkoVBf-9" target="XC3dax90-63tfWxkoVBf-8">
          <mxGeometry relative="1" as="geometry" />
        </mxCell>
        <mxCell id="XC3dax90-63tfWxkoVBf-9" value="True Atmosphere" style="rounded=1;whiteSpace=wrap;html=1;" vertex="1" parent="1">
          <mxGeometry x="400" y="470" width="120" height="60" as="geometry" />
        </mxCell>
        <mxCell id="XC3dax90-63tfWxkoVBf-15" value="TiberiumRim" style="rounded=1;whiteSpace=wrap;html=1;" vertex="1" parent="1">
          <mxGeometry x="400" y="170" width="120" height="60" as="geometry" />
        </mxCell>
        <mxCell id="XC3dax90-63tfWxkoVBf-18" value="&quot;True Phenomena&quot; Series" style="text;html=1;strokeColor=none;fillColor=none;align=center;verticalAlign=middle;whiteSpace=wrap;rounded=0;fontStyle=5" vertex="1" parent="1">
          <mxGeometry x="380" y="300" width="160" height="30" as="geometry" />
        </mxCell>
      </root>
    </mxGraphModel>
  </diagram>
</mxfile>
